
<svg width="73px" height="80px" viewBox="0 0 73 80" version="1.1" xmlns="http://www.w3.org/2000/svg">
  <path d="M38.9253,35.9282 C39.3003,36.3032 39.8073,36.5002 40.3143,36.5002 C40.8203,36.5002 41.3103,36.3032 41.7023,35.9282 L53.7773,23.8532 C54.5453,23.0852 54.5453,21.8442 53.7773,21.0762 C53.0093,20.3082 51.7673,20.3082 50.9993,21.0762 L40.3143,31.7782 L36.0003,27.4642 C35.2323,26.6972 33.9903,26.6972 33.2223,27.4642 C32.4543,28.2322 32.4543,29.4742 33.2223,30.2422 L38.9253,35.9282 Z" id="Fill-1" fill="#5ABE59"></path>
  <path d="M68,71.5 C68,74.538 65.538,77 62.5,77 C59.462,77 57,74.538 57,71.5 C57,68.462 59.462,66 62.5,66 C65.538,66 68,68.462 68,71.5 L68,71.5 Z M33,71.5 C33,74.538 30.538,77 27.5,77 C24.462,77 22,74.538 22,71.5 C22,68.462 24.462,66 27.5,66 C30.538,66 33,68.462 33,71.5 L33,71.5 Z M15.9359578,50.4110692 C17.3179588,51.3428931 18.92096,51.9563802 20.5729612,51.9563802 C22.2249625,51.9563802 62.0514323,52.0514323 64.927994,52 C67.8045558,51.9485677 73,48.0553459 73,43.4093082 L73,24.6027673 C73,23.7816352 72.3159995,23.1144654 71.4999989,23.1144654 C70.6839983,23.1144654 69.9999978,23.7816352 69.9999978,24.6027673 L69.9999978,43.3932075 C69.9999978,46.3979874 66.4752604,48.9804688 64.927994,49 C63.3807276,49.0195312 22.2779948,49.0646159 20.5729612,49 C18.8679277,48.9353841 14.9999571,46.3979874 14.9999571,43.3932075 L14.9999571,6.71194969 C14.9999571,6.5408805 14.9999571,5.53459119 14.2439566,5.26490566 L2.05094754,0.118742138 C1.8689474,0.0402515723 1.67594726,0 1.47994712,0 C0.887946677,0 0.352946282,0.359245283 0.116946107,0.917735849 C-0.0350540052,1.2709434 -0.0390540082,1.66641509 0.105946099,2.03169811 C0.254946209,2.40805031 0.540946421,2.70289308 0.907946692,2.85987421 L11.9999549,7.65383648 L11.9999549,57.3846541 C11.9999549,61.7318239 15.5529575,65.5506918 19.8559607,65.9119497 L21.0259616,65.9119497 C19.7649606,67.4042767 18.9999601,69.3343396 18.9999601,71.4465409 C18.9999601,76.1700629 22.8059629,80 27.4999664,80 C32.1939698,80 35.9999726,76.1700629 35.9999726,71.4465409 C35.9999726,69.3343396 35.2349721,67.4042767 33.9739711,65.9119497 L56.0351563,65.9869792 C54.7741553,67.4793062 53.999986,69.3343396 53.999986,71.4465409 C53.999986,76.1700629 57.8059888,80 62.4999922,80 C67.1939957,80 70.9999985,76.1700629 70.9999985,71.4465409 C70.9999985,66.8145912 67.3585307,63.16639 62.7905273,63.0214844 L20.5729612,63.0299479 C17.586959,63.0299479 14.9999571,60.3904403 14.9999571,57.3846541 L14.9999571,49.8857862 L15.9359578,50.4110692 Z" id="Fill-3" fill="#F6A623"></path>
</svg>
