<svg width="80px" height="81px" viewBox="0 0 80 81" version="1.1" xmlns="http://www.w3.org/2000/svg" xmlns:xlink="http://www.w3.org/1999/xlink">
    <defs>
        <path d="M55.7966311,49.2072323 L47.8936795,41.3011899 L39.5456653,49.6584763 L31.6427136,57.5614279 L30.0973574,59.1098748 C27.5382476,61.6720754 23.3688765,61.6751661 20.7943131,59.1006027 C18.2290218,56.5322207 18.2259311,52.3752125 20.7912224,49.8068305 L21.4031834,49.2010508 L13.4940504,41.3011899 L12.8882707,41.9007881 C8.29238139,46.4966775 6.74393448,52.9840828 8.23983928,58.850255 C3.51723072,59.9629115 0,64.2095503 0,69.2783187 C0,75.1939422 4.79678566,79.9938186 10.7154999,79.9938186 C15.8059033,79.9876372 20.0679957,76.4456807 21.1590172,71.6828929 C27.0004636,73.132437 33.4384176,71.5808994 38.0033998,67.0159172 L39.5518467,65.4643795 L47.4517076,57.5521558 L55.7966311,49.2072323 Z" id="path-1"></path>
        <mask id="mask-2" maskContentUnits="userSpaceOnUse" maskUnits="objectBoundingBox" x="0" y="0" width="55.7966311" height="38.6926287" fill="white">
            <use xlink:href="#path-1"></use>
        </mask>
        <path d="M70.8823984,58.6771751 C65.674548,57.947767 70.7309535,46.4626796 66.1845155,41.9193324 L64.6329779,40.3647041 L56.7300263,32.4586617 L48.3881935,24.1075568 L40.4790604,32.0074177 L48.8270746,40.3647041 L56.7300263,48.2707464 L58.2753825,49.8191933 C60.8530366,52.3968475 60.8468552,56.5476742 58.290836,59.1036934 C55.7255447,61.6689847 51.5623551,61.6689847 48.9970638,59.1006027 L48.3881935,58.4948231 L40.4883326,66.4070468 L41.0941122,67.0097357 C45.9063514,71.8188843 52.7955494,73.2900634 58.8780714,71.4232731 C59.8640087,76.3189615 64.191006,80 69.3741307,80 C75.2897543,80 79.9936523,75.2195565 79.9936523,69.3008423 C79.9967431,63.8951863 76.0902488,59.4065832 70.8823984,58.6771751 Z" id="path-3"></path>
        <mask id="mask-4" maskContentUnits="userSpaceOnUse" maskUnits="objectBoundingBox" x="0" y="0" width="39.5145938" height="55.8924432" fill="white">
            <use xlink:href="#path-3"></use>
        </mask>
        <path d="M23.2761552,31.5283573 L31.1821975,39.4313089 L39.548756,31.0771133 L47.4547983,23.1741616 L49.0001545,21.6318962 C51.574718,19.0573327 55.7255447,19.0604234 58.2815639,21.6195333 C60.8468552,24.1817339 60.8468552,28.3449235 58.2784732,30.9102148 L57.6696028,31.5252666 L65.5725545,39.4313089 L66.1876062,38.8131664 C70.9133055,34.0812857 72.4184825,27.3497141 70.6907742,21.3444599 C75.9418946,20.655231 79.9938186,16.1613352 79.9938186,10.7185906 C79.9969093,4.80296708 75.2001236,0.00309071241 69.2814094,0.00309071241 C63.8664812,0.00309071241 59.3880389,4.02410756 58.6648122,9.2412301 C52.637923,7.47334261 45.8538093,8.96924741 41.0972029,13.7227631 L39.5518467,15.2619379 L31.6427136,23.1679802 L23.2761552,31.5283573 Z" id="path-5"></path>
        <mask id="mask-6" maskContentUnits="userSpaceOnUse" maskUnits="objectBoundingBox" x="0" y="0" width="56.7176649" height="39.4282182" fill="white">
            <use xlink:href="#path-5"></use>
        </mask>
        <path d="M0,10.7154999 C0,4.80296708 4.79369495,0 10.7124092,0 C16.0377067,0.00618142482 20.4574254,3.89120692 21.2857364,8.98161026 C27.0653686,7.62478751 33.3920569,9.20105084 37.8983156,13.7073095 L38.5133673,14.325452 L30.607325,22.2314944 L29.9953639,21.6164426 C27.4300726,19.0511513 23.2699737,19.0511513 20.7015917,21.6195333 C18.1270283,24.191006 18.130119,28.3634678 20.6892289,30.9225777 L22.2376758,32.4679339 L30.1437181,40.3677948 L38.5071859,48.7250811 L30.607325,56.6342142 L22.2376758,48.2707464 L14.3285427,40.3677948 L12.7862772,38.8255293 C8.00803585,34.0472879 6.53067532,27.2229949 8.34183279,21.17138 C3.56668212,20.0927214 0,15.8244475 0,10.7154999 Z" id="path-7"></path>
        <mask id="mask-8" maskContentUnits="userSpaceOnUse" maskUnits="objectBoundingBox" x="0" y="0" width="38.5133673" height="56.6342142" fill="white">
            <use xlink:href="#path-7"></use>
        </mask>
    </defs>
    <g id="Group-36" stroke="none" stroke-width="1" fill="none" fill-rule="evenodd">
        <use id="Shape" stroke="#449EE9" mask="url(#mask-2)" stroke-width="6" xlink:href="#path-1"></use>
        <use id="Path" stroke="#F44321" mask="url(#mask-4)" stroke-width="6" xlink:href="#path-3"></use>
        <use id="Path" stroke="#F5A623" mask="url(#mask-6)" stroke-width="6" xlink:href="#path-5"></use>
        <use id="Path" stroke="#5ABE59" mask="url(#mask-8)" stroke-width="6" xlink:href="#path-7"></use>
    </g>
</svg>
