<svg width="166px" height="43px" viewBox="0 0 166 43" version="1.1" xmlns="http://www.w3.org/2000/svg">
  <g id="Page-1-Copy-4" transform="translate(49.000000, 0.000000)" fill="#4A4A4A">
      <polygon id="Fill-1" points="58 28.0715386 58 9 56 9 56 28.0715386 54 28.0715386 54 32 60 32 60 28.0715386"></polygon>
      <polygon id="Path" points="56 36 58 36 58 34 56 34"></polygon>
      <polygon id="Fill-2" points="0 0 14 9 29 9 62 9 46 0"></polygon>
      <path d="M47.1234244,14 C48.9410709,16.8848096 50,20.3772356 50,24.0215658 C50,34.4974753 41.5217438,43 31.0757353,43 C20.6283621,43 12,34.4974753 12,24.0215658 C12,20.3772356 13.0575645,16.8848096 15.0266815,14 L47.1234244,14 Z" id="Fill-3"></path>
  </g>
  <g id="Group-9" transform="translate(0.000000, 11.000000)" fill="#4A4A4A">
      <rect id="Rectangle-7" x="19" y="11" width="15" height="2"></rect>
      <rect id="Rectangle-8" x="0" y="11" width="2" height="2"></rect>
      <rect id="Rectangle-8-Copy" x="5" y="11" width="2" height="2"></rect>
      <rect id="Rectangle-8-Copy-2" x="9" y="11" width="2" height="2"></rect>
      <rect id="Rectangle-8-Copy-3" x="14" y="11" width="2" height="2"></rect>
      <polygon id="Path-Copy" points="33.8492172 12 22.9433724 1.08508241 24.0000015 0 36 12 24.0000015 24 22.9030325 22.9223202"></polygon>
  </g>
  <g id="Group-9" transform="translate(148.000000, 23.000000) scale(-1, 1) translate(-148.000000, -23.000000) translate(130.000000, 11.000000)" fill="#4A4A4A">
      <rect id="Rectangle-7" x="19" y="11" width="15" height="2"></rect>
      <rect id="Rectangle-8" x="0" y="11" width="2" height="2"></rect>
      <rect id="Rectangle-8-Copy" x="5" y="11" width="2" height="2"></rect>
      <rect id="Rectangle-8-Copy-2" x="9" y="11" width="2" height="2"></rect>
      <rect id="Rectangle-8-Copy-3" x="14" y="11" width="2" height="2"></rect>
      <polygon id="Path-Copy" points="33.8492172 12 22.9433724 1.08508241 24.0000015 0 36 12 24.0000015 24 22.9030325 22.9223202"></polygon>
  </g>
</svg>
