
<svg width="70px" height="67px" viewBox="0 0 70 67" version="1.1" xmlns="http://www.w3.org/2000/svg">
  <path d="M61.8493652,11.9971902 C66.0094719,11.9971902 69.5039004,15.5382733 69.5040283,19.7344677 L69.5,57.8905955 C69.5,62.0868292 65.8454806,66.0212402 61.6854248,66.0212402 L8.07421875,66.0212402 C3.91412341,66.0212402 0.5,62.0867893 0.5,57.8905955 L0.5,19.7344677 C0.5,15.5383199 3.92773738,11.997319 8.08789062,11.9971902 C8.08789062,11.9971902 15.4899742,12.0077467 15.5030499,11.9971902 C15.5152956,11.9874552 31.6959252,0.742129892 31.6959252,0.742129892 C32.2356257,0.366935898 32.9635467,0.433707302 33.4277816,0.901441892 L38.1412579,5.6514706 L38.4368819,5.94938708 L45.9292646,0.742270153 C46.4695157,0.367139711 47.1969972,0.433851945 47.6610874,0.901541147 L58.8126221,11.9971902 L61.8493652,11.9971902 Z M54.871582,12.0194092 L46.5397744,3.6554697 L34.503479,12.0194092 L54.871582,12.0194092 Z M36.1558803,7.53476559 L32.3064351,3.65546843 L20.3943481,12.0245693 L29.7017179,12.0245693 C29.7231816,12.0080214 29.7231816,12.0080214 29.7362573,11.9974649 C29.7485029,11.9877299 36.1558803,7.53476559 36.1558803,7.53476559 Z M50.0471802,47.0210571 L66.5111694,47.0210571 L66.479126,30.9765625 L50.0958862,30.9765625 C48.4338064,30.9765625 47.4855347,32.2690329 47.4855347,33.9401245 L47.47052,43.7850342 C47.47052,45.4561258 48.3851003,47.0210571 50.0471802,47.0210571 Z M50.4107666,27.9928589 L66.5076904,27.9928589 L66.5,19.7344677 C66.5,19.7344677 64.6727538,15.0093384 62.010437,15.0093384 L8.3515625,15.0093384 C5.68924575,15.0093384 3.5,17.0553825 3.5,19.7344677 L3.5,57.8908701 C3.5,60.5699553 5.68208457,63.0057007 8.34440132,63.0057007 L61.9771118,63.0057007 C64.6394286,63.0057007 66.5,57.8908701 66.5,57.8908701 L66.5045776,49.9811401 L50.3297729,49.9811401 C47.1699149,49.9811401 44.5082397,46.9941088 44.5082397,43.8059082 L44.5141602,33.8790894 C44.5141602,30.6908495 47.2509473,27.9928589 50.4107666,27.9928589 Z" id="Shape" fill="#3B4A50"></path>
  <path d="M57.5,44 C54.743475,44 52.5,41.756525 52.5,39 C52.5,36.243475 54.743475,34 57.5,34 C60.256525,34 62.5,36.243475 62.5,39 C62.5,41.756525 60.256525,44 57.5,44 Z M57.5,37 C56.3968597,37 55.5,37.8968597 55.5,39 C55.5,40.1031403 56.3968597,41 57.5,41 C58.6031403,41 59.5,40.1031403 59.5,39 C59.5,37.8968597 58.6031403,37 57.5,37 Z" id="Shape" fill="#3B4A50"></path>
  <path d="M11.3142857,24.0714286 C12.0818102,24.0714286 12.7,24.6778677 12.7,25.4212987 L12.7,50.9501299 C12.7,51.693478 12.081757,52.3 11.3142857,52.3 C10.5468461,52.3 9.92857143,51.6935083 9.92857143,50.9501299 L9.92857143,25.4212987 C9.92857143,24.6779506 10.5468145,24.0714286 11.3142857,24.0714286 Z" id="Shape" fill="#3B4A50"></path>
</svg>
