
<svg width="75px" height="59px" viewBox="0 0 75 59" version="1.1" xmlns="http://www.w3.org/2000/svg">
  <path d="M73.5291535,27 L66.5040965,27 C65.6825939,27 65.016625,26.3284687 65.016625,25.5 C65.016625,24.6716098 65.6826479,24 66.5040965,24 L73.5291535,24 C74.3506561,24 75,24.5714722 75,25.5 C75,26.4285278 74.3506561,27 73.5291535,27 Z M35.769335,56.7356916 L30.5916073,27.8071912 L30.4441577,26.983375 L26.5776484,26.983375 L22.9999364,43.5872347 C22.8599429,44.2369536 22.2853816,44.700875 21.620875,44.700875 C20.9548612,44.7005094 20.3806653,44.2359822 20.2414676,43.5857837 L16.8552025,27.7739631 L16.6858899,26.983375 L1.410625,26.983375 C0.631497138,26.9833018 0,26.3517821 0,25.5725 C0,24.79333 1.410625,24 1.410625,24 L17.82625,24 C17.82625,24 19.0663105,24.6264617 19.2056831,25.2770865 L20.6500458,32.0216541 L21.6249058,36.5738409 L24.0593173,25.2749984 C24.1993305,24.6253343 25.438375,24 25.438375,24 L31.624375,24 C31.624375,24 32.8925537,24.6510292 33.0128787,25.3236056 L35.7716433,40.7368121 L36.9225694,47.1670315 L42.7606098,1.334607 C42.8498407,0.633267251 43.4512491,0.00714884214 44.1585083,0.00305175781 C44.8662943,-0.000971826025 45.4600821,0.617775392 45.5573866,1.31822157 L48.6430421,23.4943156 L48.7630093,24 L57.665875,24 C57.665875,24 58.9923096,24.7304687 58.9923096,25.5 C58.9923096,26.2695313 58.4448855,27 57.665875,27 L47.6453857,27 C46.9413896,27 46.2346495,26.6592484 46.1375751,25.9618787 L45.2559576,19.6259324 L44.2216587,12.192706 L38.5576377,56.6657871 C38.4697575,57.3541819 37.9229405,57.9807397 37.2299805,58.0021362 C36.5037942,58.0024147 35.8898417,57.4084842 35.769335,56.7356916 Z" id="Combined-Shape" fill="#3B4A50"></path>
</svg>
