
<svg width="78px" height="76px" viewBox="0 0 78 76" version="1.1" xmlns="http://www.w3.org/2000/svg">
  <path d="M73.2424766,34.3634297 C71.7034766,19.4280938 60.6189063,6.78938281 45.9255234,3.43261719 C45.2428594,3.27557031 44.5650938,3.70366406 44.4093828,4.38647656 C44.2535234,5.06795313 44.6792422,5.74809375 45.3619063,5.90395313 C53.3735234,7.733 60.2261406,12.5413359 64.8165703,19 L60.1931875,19 C59.4927109,19 58.9265703,19.5674766 58.9265703,20.2666172 C58.9265703,20.9657578 59.4927109,21.5332344 60.1931875,21.5332344 L66.4416641,21.5332344 C68.7267109,25.4522813 70.2162813,29.8538984 70.7116172,34.5038516 C69.7412813,34.9193281 68.9901875,35.7324688 68.6342344,36.7332344 L60.8,36.7332344 C60.0995234,36.7332344 59.5333828,37.3007109 59.5333828,37.9998516 C59.5333828,38.6989922 60.0995234,39.2664688 60.8,39.2664688 L68.6343828,39.2664688 C69.1588125,40.738375 70.5508594,41.7998516 72.2,41.7998516 C74.2950469,41.7998516 76,40.0948984 76,37.9998516 C76,36.2684766 74.8295703,34.8206172 73.2424766,34.3634297 Z M72.2,39.2666172 C71.5008594,39.2666172 70.9333828,38.6979531 70.9333828,38 C70.9333828,37.316 71.4805234,36.765 72.1582891,36.7421406 C72.1697188,36.7408047 72.178625,36.7408047 72.1899063,36.7408047 C72.1974766,36.7394688 72.2025234,36.7357578 72.2100938,36.7344219 C72.9041875,36.7408047 73.4666172,37.3044219 73.4666172,37.9998516 C73.4666172,38.6979531 72.8991406,39.2666172 72.2,39.2666172 Z" id="Shape" fill="#3B4A50"></path>
  <path d="M4.26861719,32.2443359 C4.35604687,32.262 4.44347656,32.2709063 4.52823437,32.2709063 C5.11589844,32.2709063 5.64285156,31.8604766 5.76828125,31.2625703 C6.2901875,28.7507109 7.12232812,26.3175234 8.21171094,24.0007109 C8.42575781,24.0387109 8.64232812,24.0666172 8.86661719,24.0666172 C10.9616641,24.0666172 12.6666172,22.3616641 12.6666172,20.2666172 C12.6666172,18.1715703 10.9616641,16.4666172 8.86661719,16.4666172 C6.77157031,16.4666172 5.06661719,18.1715703 5.06661719,20.2666172 C5.06661719,21.2152813 5.42880469,22.0741406 6.0051875,22.7404766 C4.78785156,25.2915234 3.86457031,27.9755703 3.28685156,30.7458594 C3.14390625,31.4310469 3.58461719,32.1024297 4.26861719,32.2443359 Z M8.86661719,19 C9.56575781,19 10.1332344,19.5686641 10.1332344,20.2666172 C10.1332344,20.9645703 9.56575781,21.5332344 8.86661719,21.5332344 C8.16747656,21.5332344 7.6,20.9645703 7.6,20.2666172 C7.6,19.5686641 8.16747656,19 8.86661719,19 Z" id="Shape" fill="#3B4A50"></path>
  <path d="M30.6153828,70.091 C17.0228125,66.9775234 6.7628125,55.3014297 5.28838281,41.496 C6.64495313,40.9159063 7.6,39.5669063 7.6,38 C7.6,35.9049531 5.89504688,34.2 3.8,34.2 C1.70495313,34.2 0,35.9049531 0,38 C0,39.7315234 1.17042969,41.1793828 2.75752344,41.6365703 C4.2951875,56.5604766 15.3684766,69.198 30.0490938,72.561 C30.1440938,72.5825234 30.2390938,72.5926172 30.3327578,72.5926172 C30.9103281,72.5926172 31.4322344,72.1961406 31.5664219,71.6084766 C31.7224297,70.927 31.2968594,70.2468594 30.6153828,70.091 Z M3.82657031,39.2615703 C3.8201875,39.2615703 3.81514063,39.2590469 3.81009375,39.2590469 C3.80252344,39.2603828 3.79747656,39.2640938 3.78975781,39.2654297 C3.09566406,39.2590469 2.53323438,38.6954297 2.53323438,38 C2.53323438,37.3020469 3.10071094,36.7333828 3.79985156,36.7333828 C4.49899219,36.7333828 5.06646875,37.3020469 5.06646875,38 C5.06661719,38.6890469 4.51190625,39.2464297 3.82657031,39.2615703 Z" id="Shape" fill="#3B4A50"></path>
  <path d="M71.7288594,43.7633828 C71.0334297,43.6202891 70.3722891,44.0598125 70.2291953,44.745 C69.5046719,48.2283828 68.2202422,51.4950469 66.4951016,54.4666172 L60.1934844,54.4666172 C59.4930078,54.4666172 58.9268672,55.0340938 58.9268672,55.7332344 C58.9268672,56.432375 59.4930078,56.9998516 60.1934844,56.9998516 L64.8725312,56.9998516 C59.7083906,64.2692813 51.6814844,69.3093281 42.5816719,70.5861875 C45.3620547,68.3961406 49.2165312,64.7316641 52.4161016,59.4496641 C52.6694844,59.5041406 52.931625,59.5332344 53.2001484,59.5332344 C55.2951953,59.5332344 57.0001484,57.8282813 57.0001484,55.7332344 C57.0001484,54.570375 56.4631016,53.5393281 55.6371953,52.841375 C57.3751016,48.2117578 58.2667656,43.227375 58.2667656,37.9998516 C58.2667656,32.6595156 57.4243828,27.6359453 55.7828125,23.0379453 C56.5276719,22.3438516 57.0001484,21.3620859 57.0001484,20.2664688 C57.0001484,18.1714219 55.2951953,16.4664688 53.2001484,16.4664688 C53.0392422,16.4664688 52.8847187,16.494375 52.7290078,16.5145625 C49.1366719,10.3940391 44.6084375,6.56360938 41.7204375,4.56994531 C41.7735781,4.32160938 41.8002969,4.06332813 41.8002969,3.79985156 C41.8,1.70495313 40.0950469,0 38,0 C36.2760469,0 34.8333828,1.16152344 34.3696641,2.73733594 C25.7475234,3.61504687 17.7991406,7.58485938 11.8953359,14.0055234 C11.4216719,14.5198594 11.4558125,15.3215703 11.97,15.7940469 C12.2144766,16.0181875 12.521,16.1284766 12.8275234,16.1284766 C13.1681875,16.1284766 13.5101875,15.9916172 13.7598594,15.7193828 C18.9683828,10.0560469 25.8894297,6.44604687 33.4299062,5.40104687 C30.1580469,7.97242969 25.5790469,12.4159063 22.2009062,19 L15.8333828,19 C15.1329062,19 14.5667656,19.5674766 14.5667656,20.2666172 C14.5667656,20.9657578 15.1329062,21.5332344 15.8333828,21.5332344 L21.0153359,21.5332344 C19.1938594,25.7981406 17.9449062,30.8496172 17.7828125,36.7332344 L11.4,36.7332344 C10.6995234,36.7332344 10.1333828,37.3007109 10.1333828,37.9998516 C10.1333828,38.6989922 10.6995234,39.2664688 11.4,39.2664688 L17.7801406,39.2664688 C17.9296172,45.1995156 19.0746641,50.2471328 20.7782812,54.4664688 L15.8332344,54.4664688 C15.1327578,54.4664688 14.5666172,55.0339453 14.5666172,55.7330859 C14.5666172,56.4322266 15.1327578,56.9997031 15.8332344,56.9997031 L21.9068516,56.9997031 C25.6054687,64.5440391 30.9128516,69.1116094 34.278375,71.4321328 C34.2264219,71.6804688 34.1998516,71.9362266 34.1998516,72.1997031 C34.1998516,74.29475 35.9048047,75.9997031 37.9998516,75.9997031 C39.731375,75.9997031 41.1792344,74.8292734 41.6352344,73.2435156 C56.8732344,71.6791328 69.5766641,60.3235156 72.7103281,45.260375 C72.8535703,44.5765234 72.4128594,43.9051406 71.7288594,43.7633828 Z M53.2,57 C52.5008594,57 51.9333828,56.4313359 51.9333828,55.7333828 C51.9333828,55.0354297 52.5008594,54.4667656 53.2,54.4667656 C53.8991406,54.4667656 54.4666172,55.0354297 54.4666172,55.7333828 C54.4666172,56.4313359 53.8991406,57 53.2,57 Z M53.2,19 C53.8991406,19 54.4666172,19.5686641 54.4666172,20.2666172 C54.4666172,20.9645703 53.8991406,21.5332344 53.2,21.5332344 C52.5008594,21.5332344 51.9333828,20.9645703 51.9333828,20.2666172 C51.9333828,19.5686641 52.5008594,19 53.2,19 Z M38,2.53338281 C38.6991406,2.53338281 39.2666172,3.10204688 39.2666172,3.8 C39.2666172,4.49795313 38.6991406,5.06661719 38,5.06661719 C37.3096172,5.06661719 36.7510469,4.51057031 36.7384297,3.82271094 C36.7384297,3.81885156 36.7397656,3.81514063 36.7397656,3.81009375 C36.7397656,3.80371094 36.7359062,3.8 36.7347187,3.79361719 C36.7384297,3.09833594 37.3033828,2.53338281 38,2.53338281 Z M39.2666172,38 C39.2666172,38.6979531 38.6991406,39.2666172 38,39.2666172 C37.3008594,39.2666172 36.7333828,38.6979531 36.7333828,38 C36.7333828,37.3020469 37.3008594,36.7333828 38,36.7333828 C38.6991406,36.7333828 39.2666172,37.3020469 39.2666172,38 Z M24.2021406,55.9080937 C24.2097109,55.8485703 24.2376172,55.7954297 24.2376172,55.7332344 C24.2376172,55.2911875 23.997,54.9200937 23.6536641,54.6946172 C21.6561406,50.2181875 20.2666172,44.7221406 20.2666172,38 C20.2666172,31.103 21.8715234,25.3903828 24.1362344,20.7631406 C24.1375703,20.7606172 24.1375703,20.7592813 24.1387578,20.7567578 C27.5841406,13.7166641 32.5507109,9.19466406 35.7262344,6.82589844 C36.0302344,7.05523438 36.3671875,7.23632813 36.7332344,7.36546875 L36.7332344,19 L27.8666172,19 C27.1661406,19 26.6,19.5674766 26.6,20.2666172 C26.6,20.9657578 27.1661406,21.5332344 27.8666172,21.5332344 L36.7332344,21.5332344 L36.7332344,34.4330469 C35.6591406,34.8155703 34.8155703,35.6604766 34.4342344,36.7333828 L24.0666172,36.7333828 C23.3661406,36.7333828 22.8,37.3008594 22.8,38 C22.8,38.6991406 23.3661406,39.2666172 24.0666172,39.2666172 L34.4342344,39.2666172 C34.8155703,40.3395234 35.6591406,41.1842812 36.7332344,41.5656172 L36.7332344,54.4666172 L27.8666172,54.4666172 C27.1661406,54.4666172 26.6,55.0340937 26.6,55.7332344 C26.6,56.432375 27.1661406,56.9998516 27.8666172,56.9998516 L36.7332344,56.9998516 L36.7332344,68.6328984 C36.3177578,68.7810391 35.9416172,68.9989453 35.6058516,69.2725156 C32.4735234,67.0915234 27.6133828,62.8545234 24.2021406,55.9080937 Z M38,73.4666172 C37.3008594,73.4666172 36.7333828,72.8979531 36.7333828,72.2 C36.7333828,71.5020469 37.3008594,70.9333828 38,70.9333828 C38.6903828,70.9333828 39.2489531,71.4894297 39.2615703,72.1772891 C39.2615703,72.1811484 39.2602344,72.1848594 39.2602344,72.1899063 C39.2602344,72.1962891 39.2640937,72.2 39.2652812,72.2075703 C39.2603828,72.9018125 38.6966172,73.4666172 38,73.4666172 Z M40.2724297,69.1726172 C39.9684297,68.9446172 39.6314766,68.7635234 39.2666172,68.6330469 L39.2666172,41.5669531 C40.7371875,41.0413359 41.8,39.6492891 41.8,38 C41.8,36.3507109 40.7373359,34.9586641 39.2666172,34.4330469 L39.2666172,7.36695313 C39.6807578,7.2188125 40.0570469,7.00209375 40.3914766,6.72852344 C43.0590469,8.588 47.1630469,12.1004766 50.4564297,17.651 C50.0915703,18.0323359 49.8142891,18.4920469 49.6343828,19 L42.4333828,19 C41.7329062,19 41.1667656,19.5674766 41.1667656,20.2666172 C41.1667656,20.9657578 41.7329062,21.5332344 42.4333828,21.5332344 L49.6343828,21.5332344 C50.1588125,23.0051406 51.5508594,24.0666172 53.2,24.0666172 C53.2860937,24.0666172 53.3671406,24.0462813 53.4508594,24.0412344 C54.8302891,27.9590938 55.5877656,32.2162813 55.7068125,36.7332344 L45.6,36.7332344 C44.8995234,36.7332344 44.3333828,37.3007109 44.3333828,37.9998516 C44.3333828,38.6989922 44.8995234,39.2664688 45.6,39.2664688 L55.7054766,39.2664688 C55.575,43.721375 54.7568125,47.9748516 53.2709531,51.9408047 C53.2469062,51.9394688 53.2253828,51.9332344 53.2,51.9332344 C51.5508594,51.9332344 50.1586641,52.9947109 49.6343828,54.4666172 L42.4333828,54.4666172 C41.7329062,54.4666172 41.1667656,55.0340938 41.1667656,55.7332344 C41.1667656,56.432375 41.7329062,56.9998516 42.4333828,56.9998516 L49.6343828,56.9998516 C49.78,57.4102813 49.9940469,57.7852344 50.2652422,58.1169922 C46.9590937,63.5815703 42.8969531,67.2130938 40.2724297,69.1726172 Z" id="Shape" fill="#3B4A50"></path>
</svg>
