
<svg width="71px" height="71px" viewBox="0 0 71 71" version="1.1" xmlns="http://www.w3.org/2000/svg">
  <path d="M3.33888477,66.6666667 C7.7858631,71.1111111 15.0188544,71.1111111 19.4658327,66.6666667 L65.1544175,20.9780818 C65.3482602,20.7170911 65.4002049,20.6170024 65.4394802,20.5080451 C65.4800225,20.4003547 70,1.56087673 70,1.56087673 C70,1.56087673 69.9954159,1.3898391 69.9979498,1.30495376 C70.0017506,1.11237806 69.970077,0.971747118 69.9206661,0.83618396 C69.8205774,0.61066768 69.7432937,0.480172305 69.6343364,0.371215001 C69.5139766,0.250855188 69.3720787,0.158368174 69.2187783,0.0950209046 C69.0654779,0.0316736349 68.902042,0 68.738606,0 C68.6410512,0 68.5422295,0.0114025086 68.4459417,0.0342075257 L49.6318025,4.5128595 C49.4911716,4.56480426 49.4506293,4.58127455 49.4088202,4.60027873 C49.3176001,4.64208793 49.2327147,4.69403269 49.1541641,4.75611301 C49.0528085,4.83466363 3.34015171,50.5397187 3.34015171,50.5397187 C1.16476447,52.715106 9.09494702e-13,56.4241333 9.09494702e-13,58.4141551 C9.09616555e-13,60.4041769 1.06794085,64.3957227 3.33888477,66.6666667 Z M5.13034555,64.8752059 C1.97818541,61.7217788 1.70959299,56.7705562 4.30683105,53.2991258 L16.7064256,65.6987204 C13.2337283,68.2959584 8.2825057,68.027366 5.13034555,64.8752059 Z M11.4017253,46.0610668 L23.9444847,58.6038262 L22.1530239,60.395287 L9.61026447,47.8525276 L11.4017253,46.0610668 Z M63.7177014,6.28784999 C64.2130771,6.78322564 65.0137866,6.78322564 65.5091622,6.28784999 L66.4682399,5.32877233 L63.2324614,18.9205625 L57.6300288,19.5426327 L58.3509207,13.0533384 C58.3559885,13.0051945 58.3382513,12.9608514 58.3382513,12.9139744 C58.3382513,12.8658305 58.3559885,12.8227543 58.3509207,12.7746104 C58.345853,12.7328012 58.3243149,12.6985937 58.3154463,12.6580514 C58.3002429,12.5845686 58.2787049,12.5174205 58.252099,12.4490054 C58.2191584,12.366654 58.1798831,12.2919042 58.1317392,12.2196883 C58.0924639,12.1614088 58.0531886,12.1094641 58.0050447,12.0587863 C57.9442313,11.9941721 57.8783501,11.9396934 57.8061342,11.8890156 C57.7491217,11.8497403 57.694643,11.8129989 57.6312958,11.7825922 C57.5476774,11.7433169 57.4602581,11.7205118 57.3690381,11.6989738 C57.3208941,11.6875713 57.2816188,11.6609654 57.232208,11.6546307 C57.1865979,11.6495629 57.1409879,11.647029 57.0941109,11.647029 C57.0434331,11.647029 56.9965561,11.6495629 56.9509461,11.6546307 L50.4616518,12.3755226 L51.083722,6.77309008 L64.6767791,3.53731154 L63.7177014,4.49638921 C63.2235927,4.99049791 63.2235927,5.79247434 63.7177014,6.28784999 Z M47.8175367,13.2294438 L19.4658327,41.5824148 C18.970457,42.0777904 18.970457,42.8784999 19.4658327,43.3738756 C19.9612083,43.8692512 20.7619178,43.8692512 21.2572935,43.3738756 L49.6089975,15.0209046 L55.6561279,14.3494235 L54.9846468,20.3965539 L26.6304089,48.748258 C26.1350333,49.2436336 26.1350333,50.0443431 26.6304089,50.5397187 C27.1257845,51.0350944 27.926494,51.0350944 28.4218697,50.5397187 L56.7761076,22.1880147 L60.8087948,21.739516 L25.7359455,56.8123654 L13.193186,44.269606 L48.2660354,9.19675662 L47.8175367,13.2294438 Z M7.81880368,49.6439883 L20.3615631,62.1867478 L18.5688354,63.9794755 L6.02607595,51.4367161 L7.81880368,49.6439883 Z" id="Shape" fill="#3B4A50"></path>
</svg>
