
<svg width="131px" height="80px" viewBox="0 0 131 80" version="1.1" xmlns="http://www.w3.org/2000/svg">
    <path d="M60.5,0 C45.93,0 33.275,8.2 26.973,20.2 C11.797,21.8 0,34.55 0,50 C0,66.55 13.562,80 30.25,80 L105.792,80 C119.707,80 131,68.8 131,55 C131,41.8 120.665,31.1 107.556,30.2 C107.346,30.219 107.144,30.229 106.937,30.245 C106.971,29.833 107,29.42 107,29 C107,20.716 100.284,14 92,14 C91.337,14 90.689,14.058 90.049,14.141 C83.133,5.517 72.474,0 60.5,0 M60.5,3 C71.157,3 81.074,7.745 87.708,16.018 L88.764,17.334 L90.437,17.116 C91.044,17.037 91.541,17 92,17 C98.617,17 104,22.383 104,29 C104,29.297 103.979,29.614 103.947,29.999 L103.659,33.5 L107.162,33.236 L107.366,33.223 C107.433,33.218 107.499,33.214 107.565,33.209 C119.042,34.106 128,43.637 128,55 C128,67.131 118.038,77 105.792,77 L30.25,77 C15.224,77 3,64.888 3,50 C3,36.172 13.441,24.644 27.288,23.184 L28.883,23.016 L29.629,21.595 C35.652,10.125 47.481,3 60.5,3" id="Page-1" fill="#449EE9"></path>
    <path d="M53.0556641,61.0351562 C53.0556641,62.3242252 52.5918015,63.33984 51.6640625,64.0820312 C50.7363235,64.8242225 49.4456463,65.1953125 47.7919922,65.1953125 C46.2685471,65.1953125 44.9209043,64.908857 43.7490234,64.3359375 L43.7490234,61.5234375 C44.7125699,61.9531271 45.5279915,62.2558585 46.1953125,62.4316406 C46.8626335,62.6074228 47.472979,62.6953125 48.0263672,62.6953125 C48.690433,62.6953125 49.199868,62.5683606 49.5546875,62.3144531 C49.909507,62.0605456 50.0869141,61.6829452 50.0869141,61.1816406 C50.0869141,60.9016913 50.0087898,60.6526704 49.8525391,60.4345703 C49.6962883,60.2164703 49.4667984,60.0065114 49.1640625,59.8046875 C48.8613266,59.6028636 48.2444708,59.2806012 47.3134766,58.8378906 C46.4410764,58.4277323 45.786786,58.0338561 45.3505859,57.65625 C44.9143858,57.2786439 44.566082,56.8391952 44.3056641,56.3378906 C44.0452461,55.836586 43.9150391,55.2506544 43.9150391,54.5800781 C43.9150391,53.317051 44.3430947,52.3242224 45.1992188,51.6015625 C46.0553428,50.8789026 47.2385992,50.5175781 48.7490234,50.5175781 C49.4912146,50.5175781 50.1992154,50.6054679 50.8730469,50.78125 C51.5468784,50.9570321 52.2516239,51.2044255 52.9873047,51.5234375 L52.0107422,53.8769531 C51.2490196,53.5644516 50.6191431,53.3463548 50.1210938,53.2226562 C49.6230444,53.0989577 49.1331404,53.0371094 48.6513672,53.0371094 C48.0784477,53.0371094 47.6389989,53.1705716 47.3330078,53.4375 C47.0270167,53.7044284 46.8740234,54.0527322 46.8740234,54.4824219 C46.8740234,54.7493503 46.9358718,54.9820954 47.0595703,55.1806641 C47.1832688,55.3792328 47.380207,55.5712881 47.6503906,55.7568359 C47.9205743,55.9423837 48.5602163,56.2760393 49.5693359,56.7578125 C50.903978,57.3958365 51.8186824,58.0354786 52.3134766,58.6767578 C52.8082707,59.3180371 53.0556641,60.104162 53.0556641,61.0351562 Z M61.7080078,53.0371094 C60.5686792,53.0371094 59.6865266,53.465165 59.0615234,54.3212891 C58.4365203,55.1774131 58.1240234,56.3704351 58.1240234,57.9003906 C58.1240234,61.0840003 59.3186729,62.6757812 61.7080078,62.6757812 C62.710617,62.6757812 63.9247976,62.4251327 65.3505859,61.9238281 L65.3505859,64.4628906 C64.1787051,64.9511743 62.8701244,65.1953125 61.4248047,65.1953125 C59.3479714,65.1953125 57.7594456,64.565436 56.6591797,63.3056641 C55.5589138,62.0458921 55.0087891,60.237642 55.0087891,57.8808594 C55.0087891,56.396477 55.2789687,55.0960342 55.8193359,53.9794922 C56.3597032,52.8629501 57.1360626,52.0068389 58.1484375,51.4111328 C59.1608124,50.8154267 60.3473239,50.5175781 61.7080078,50.5175781 C63.0947335,50.5175781 64.4879487,50.8528612 65.8876953,51.5234375 L64.9111328,53.984375 C64.377276,53.7304675 63.840172,53.5091155 63.2998047,53.3203125 C62.7594374,53.1315095 62.2288437,53.0371094 61.7080078,53.0371094 Z M80.9462891,57.8417969 C80.9462891,60.2050899 80.3603574,62.021478 79.1884766,63.2910156 C78.0165957,64.5605532 76.336925,65.1953125 74.1494141,65.1953125 C71.9619031,65.1953125 70.2822324,64.5605532 69.1103516,63.2910156 C67.9384707,62.021478 67.3525391,60.1985796 67.3525391,57.8222656 C67.3525391,55.4459517 67.9400983,53.6311912 69.1152344,52.3779297 C70.2903705,51.1246682 71.9749239,50.4980469 74.1689453,50.4980469 C76.3629667,50.4980469 78.0410098,51.129551 79.203125,52.3925781 C80.3652402,53.6556053 80.9462891,55.4719934 80.9462891,57.8417969 Z M70.5263672,57.8417969 C70.5263672,59.4368569 70.8290985,60.6380168 71.4345703,61.4453125 C72.0400421,62.2526082 72.944981,62.65625 74.1494141,62.65625 C76.5647907,62.65625 77.7724609,61.0514483 77.7724609,57.8417969 C77.7724609,54.625635 76.5713011,53.0175781 74.1689453,53.0175781 C72.9645122,53.0175781 72.0563182,53.4228475 71.4443359,54.2333984 C70.8323537,55.0439494 70.5263672,56.2467368 70.5263672,57.8417969 Z M86.9326172,57.0605469 L87.9091797,57.0605469 C88.8662157,57.0605469 89.5725889,56.9010433 90.0283203,56.5820312 C90.4840518,56.2630192 90.7119141,55.7617222 90.7119141,55.078125 C90.7119141,54.4010383 90.479169,53.9192723 90.0136719,53.6328125 C89.5481748,53.3463527 88.8271533,53.203125 87.8505859,53.203125 L86.9326172,53.203125 L86.9326172,57.0605469 Z M86.9326172,59.5214844 L86.9326172,65 L83.9052734,65 L83.9052734,50.7226562 L88.0654297,50.7226562 C90.0055436,50.7226562 91.4410761,51.0758428 92.3720703,51.7822266 C93.3030646,52.4886103 93.7685547,53.5611907 93.7685547,55 C93.7685547,55.8398479 93.5374372,56.5869108 93.0751953,57.2412109 C92.6129534,57.8955111 91.9586631,58.4082013 91.1123047,58.7792969 C93.2607529,61.9889483 94.6604785,64.0624953 95.3115234,65 L91.9521484,65 L88.5439453,59.5214844 L86.9326172,59.5214844 Z M103.15332,65 L99.7158203,53.7988281 L99.6279297,53.7988281 C99.7516282,56.0774854 99.8134766,57.5976524 99.8134766,58.359375 L99.8134766,65 L97.1083984,65 L97.1083984,50.7226562 L101.229492,50.7226562 L104.608398,61.640625 L104.666992,61.640625 L108.250977,50.7226562 L112.37207,50.7226562 L112.37207,65 L109.549805,65 L109.549805,58.2421875 C109.549805,57.9231755 109.554687,57.5553406 109.564453,57.1386719 C109.574219,56.7220031 109.618164,55.6152434 109.696289,53.8183594 L109.608398,53.8183594 L105.926758,65 L103.15332,65 Z" id="SCORM" fill="#9B9B9B"></path>
    <path d="M54.7832031,41 L53.7480469,37.6015625 L48.5429688,37.6015625 L47.5078125,41 L44.2460938,41 L49.2851562,26.6640625 L52.9863281,26.6640625 L58.0449219,41 L54.7832031,41 Z M53.0253906,35.0625 C52.0683546,31.9830575 51.529623,30.2415385 51.4091797,29.8378906 C51.2887364,29.4342428 51.2024742,29.1152355 51.1503906,28.8808594 C50.9355458,29.7141969 50.3203176,31.7747231 49.3046875,35.0625 L53.0253906,35.0625 Z M59.8417969,41 L59.8417969,26.7226562 L62.8691406,26.7226562 L62.8691406,41 L59.8417969,41 Z M72.5273438,29.0371094 C71.3880151,29.0371094 70.5058625,29.465165 69.8808594,30.3212891 C69.2558562,31.1774131 68.9433594,32.3704351 68.9433594,33.9003906 C68.9433594,37.0840003 70.1380089,38.6757812 72.5273438,38.6757812 C73.5299529,38.6757812 74.7441335,38.4251327 76.1699219,37.9238281 L76.1699219,40.4628906 C74.998041,40.9511743 73.6894604,41.1953125 72.2441406,41.1953125 C70.1673073,41.1953125 68.5787815,40.565436 67.4785156,39.3056641 C66.3782497,38.0458921 65.828125,36.237642 65.828125,33.8808594 C65.828125,32.396477 66.0983046,31.0960342 66.6386719,29.9794922 C67.1790392,28.8629501 67.9553986,28.0068389 68.9677734,27.4111328 C69.9801483,26.8154267 71.1666599,26.5175781 72.5273438,26.5175781 C73.9140694,26.5175781 75.3072847,26.8528612 76.7070312,27.5234375 L75.7304688,29.984375 C75.1966119,29.7304675 74.6595079,29.5091155 74.1191406,29.3203125 C73.5787733,29.1315095 73.0481797,29.0371094 72.5273438,29.0371094 Z M84.8710938,29.0371094 C83.7317651,29.0371094 82.8496125,29.465165 82.2246094,30.3212891 C81.5996062,31.1774131 81.2871094,32.3704351 81.2871094,33.9003906 C81.2871094,37.0840003 82.4817589,38.6757812 84.8710938,38.6757812 C85.8737029,38.6757812 87.0878835,38.4251327 88.5136719,37.9238281 L88.5136719,40.4628906 C87.341791,40.9511743 86.0332104,41.1953125 84.5878906,41.1953125 C82.5110573,41.1953125 80.9225315,40.565436 79.8222656,39.3056641 C78.7219997,38.0458921 78.171875,36.237642 78.171875,33.8808594 C78.171875,32.396477 78.4420546,31.0960342 78.9824219,29.9794922 C79.5227892,28.8629501 80.2991486,28.0068389 81.3115234,27.4111328 C82.3238983,26.8154267 83.5104099,26.5175781 84.8710938,26.5175781 C86.2578194,26.5175781 87.6510347,26.8528612 89.0507812,27.5234375 L88.0742188,29.984375 C87.5403619,29.7304675 87.0032579,29.5091155 86.4628906,29.3203125 C85.9225233,29.1315095 85.3919297,29.0371094 84.8710938,29.0371094 Z" id="AICC" fill="#9B9B9B"></path>
    <path d="M31.6078431,40.7843137 L20.4117647,51.9215686 L16.5098039,48 C15.745098,47.2352941 14.5294118,47.2352941 13.7647059,48 C13,48.7647059 13,49.9803922 13.7647059,50.745098 L19.0196078,56.0392157 C19.3921569,56.4117647 19.9019608,56.6078431 20.3921569,56.6078431 C20.8823529,56.6078431 21.372549,56.4117647 21.7647059,56.0392157 L34.3529412,43.5294118 C35.1176471,42.7647059 35.1176471,41.5490196 34.3529412,40.7843137 C33.6078431,40.0392157 32.372549,40.0196078 31.6078431,40.7843137 Z" id="Shape" fill="#F5A623"></path>
</svg>
