<svg width="86px" height="80px" viewBox="0 0 86 80" version="1.1" xmlns="http://www.w3.org/2000/svg">
  <g id="Page-1" stroke="none" stroke-width="1" fill="none" fill-rule="evenodd">
    <path d="M64,45 C63.531,43.44 62.689,42.023 61.523,40.85 C60.99,40.312 60.405,39.846 59.782,39.45 C62.609,37.532 64.359,34.123 63.904,30.351 C63.385,26.037 59.888,22.549 55.597,22.063 C49.884,21.414 45.026,25.915 45.026,31.536 C45.026,34.824 46.688,37.728 49.21,39.443 C47.222,40.696 45.704,42.646 45,45" id="Fill-1" fill="#449EE9"></path>
    <path d="M48.0015,31.5 C48.0015,27.916 50.9175,25 54.5015,25 C58.0855,25 61.0015,27.916 61.0015,31.5 C61.0015,35.083 58.0875,37.998 54.5055,38 L54.5015,38 L54.4975,38 C50.9155,37.998 48.0015,35.083 48.0015,31.5" id="Fill-3" fill="#FFFFFF"></path>
    <path d="M54.4995,41 L54.5035,41 L54.5085,41 C56.4265,41.001 58.2285,41.726 59.5825,43.042 C60.1775,43.619 60.6505,44.281 60.9995,45 L47.9995,45 C49.1515,42.603 51.6405,41.002 54.4995,41" id="Fill-5" fill="#FFFFFF"></path>
    <path d="M52,30.5 C52,31.329 51.329,32 50.5,32 C49.671,32 49,31.329 49,30.5 C49,29.671 49.671,29 50.5,29 C51.329,29 52,29.671 52,30.5" id="Fill-7" fill="#292929"></path>
    <path d="M58,30.5 C58,31.329 57.329,32 56.5,32 C55.671,32 55,31.329 55,30.5 C55,29.671 55.671,29 56.5,29 C57.329,29 58,29.671 58,30.5" id="Fill-9" fill="#292929"></path>
    <path d="M38,20 C38,21.104 37.104,22 36,22 C34.896,22 34,21.104 34,20 C34,18.896 34.896,18 36,18 C37.104,18 38,18.896 38,20" id="Fill-11" fill="#292929"></path>
    <path d="M41,67 L34,67 L34,59.61 C34,58.724 33.386,58.006 32.5,58.006 C31.614,58.006 31,58.724 31,59.61 L31,77 L3,77 L3,60.717 C3,50.342 11.648,42 22.022,42 C32.396,42 41,50.342 41,60.717 L41,67 Z M34,77 L41,77 L41,70 L34,70 L34,77 Z M4,20.99 C4,11.065 12.075,2.99 22,2.99 C31.925,2.99 40,11.065 40,20.99 C40,30.916 31.925,38.99 22,38.99 C12.075,38.99 4,30.916 4,20.99 L4,20.99 Z M43.57,56.509 C42.705,53.192 41.28,49.075 38.689,46.354 C38.689,46.354 37.064,44.467 35.143,43.03 C33.221,41.593 31.331,40.85 30.534,40.254 L30.317,40.254 C37.764,37.026 42.99,29.61 42.99,20.99 C42.99,9.416 33.574,0 22,0 C10.426,0 1.01,9.416 1.01,20.99 C1.01,29.647 6.28,37.095 13.779,40.3 C5.709,43.57 0,51.487 0,60.717 L0,78.26 C0,79.146 0.718,80 1.604,80 L42.44,80 C43.326,80 44,79.146 44,78.26 L44,62.111 L43.57,56.509 Z" id="Fill-13" fill="#F6A623"></path>
    <path d="M78,60.042 L72,60 C73.823,58.513 75.664,56.297 76,54 L83,54 C83,54 81.936,58.396 78,60.042 M81.52,11 L40.456,11 C40.975,11.955 41.4,12.964 41.768,14 L53,14 C53,15 54,16 55,16 C56,16 57,15 57,14 L81.733,14 C82.432,14 83,14.575 83,15.281 L83,51 L41.677,51 C42.126,51.991 42.51,53.004 42.836,54 L72,54 C71.277,57.428 68.223,59.267 66.058,60.002 L43.838,60 L44,62.111 L44,62.942 L77.224,62.942 C82.063,62.942 86,58.974 86,54.097 L86,15.516 C86,13.026 83.99,11 81.52,11 M80,46 L80,18.982 C80,18.087 79,17 78.064,17 L42.599,17 C42.788,17.977 42.892,18.98 42.94,20 L77,20 L77,45 L37.401,45 C38.177,45.765 38.689,46.354 38.689,46.354 C39.167,46.856 39.593,47.417 39.996,48 L78,48 C78.885,48 80,46.895 80,46" id="Fill-15" fill="#449EE9"></path>
  </g>
</svg>
