<svg width="113px" height="81px" viewBox="0 0 113 81" version="1.1" xmlns="http://www.w3.org/2000/svg" xmlns:xlink="http://www.w3.org/1999/xlink">
    <defs>
        <path d="M100.118267,25.6750043 C99.5456116,27.4406618 98.6190667,29.0771104 97.5023102,30.4381722 L97.5023102,30.4406687 C96.3755187,31.8095271 94.870416,33.0197928 93.1960058,33.8222404 C91.6592536,34.5586937 89.9747169,34.9553014 88.2984291,34.8240267 L87.7854136,34.7838479 L87.7178521,34.2706616 C87.500071,32.6156525 87.7515625,30.9402446 88.2812221,29.3898062 C88.8975744,27.5855723 89.8959453,25.939325 90.967222,24.6918828 L90.9670345,24.6916944 C92.0756333,23.3870356 93.5623131,22.2519008 95.1544493,21.4294332 C96.7519642,20.604142 98.4676781,20.0880803 100.02924,20.0241638 L100.619524,20 L100.684226,20.5924608 C100.87336,22.3251929 100.643342,24.0560388 100.118275,25.6750317 L100.118267,25.6750043 Z M110.971557,41.240804 C110.405655,41.5925692 104.935975,44.9927938 105.003776,51.8465057 C105.075322,60.1090285 112.048788,62.9732862 112.433721,63.1313327 L112.436206,63.1313327 L112.45285,63.1382568 L113,63.3658584 L112.8126,63.928361 C112.801488,63.9617099 112.814101,63.9262413 112.797878,63.9785729 C112.619949,64.5512968 111.413737,68.4335443 108.688903,72.4337983 C107.452447,74.2483014 106.192694,76.0600687 104.705327,77.4575853 C103.165292,78.9045418 101.406492,79.8812711 99.2337459,79.9218256 C97.1858517,79.9604501 95.8451263,79.3776442 94.4514068,78.7718075 C93.1224473,78.1940905 91.7403706,77.5932428 89.5775683,77.5932428 C87.3056098,77.5932428 85.853295,78.2148124 84.454399,78.8135863 C83.1375826,79.3771736 81.8640428,79.9222484 80.0293241,79.9957761 L80.0268392,79.9957761 C77.9082901,80.0748148 76.0711897,79.037276 74.438512,77.5005406 C72.8764892,76.0303618 71.5079567,74.1051224 70.2608624,72.2929842 C67.4457392,68.2092604 64.9974868,62.2673443 64.241079,56.2254479 C63.6189152,51.2556989 64.1389633,46.2072258 66.5305712,42.0378387 C67.8656716,39.7050166 69.7316508,37.801213 71.913273,36.4727934 C74.0849434,35.1504715 76.5695773,34.3979543 79.1558528,34.358999 L79.1558528,34.3589519 C81.4201221,34.3176896 83.5550856,35.1688891 85.4232203,35.9136814 C86.7453322,36.4407621 87.9232761,36.9104268 88.8063539,36.9104268 C89.5865238,36.9104268 90.7365216,36.4548958 92.0771041,35.9239028 C94.3412345,35.0271099 97.1111558,33.930081 100.040087,34.2226842 C101.270116,34.2764288 103.83211,34.5724239 106.451035,35.9983238 C108.119396,36.906706 109.811618,38.2704797 111.20269,40.3158271 L111.569472,40.855203 L111.021571,41.2106424 C110.992268,41.229672 111.020774,41.2102655 110.971592,41.2407883 L110.971557,41.240804 Z" id="path-1"></path>
        <mask id="mask-2" maskContentUnits="userSpaceOnUse" maskUnits="objectBoundingBox" x="0" y="0" width="49" height="60" fill="white">
            <use xlink:href="#path-1"></use>
        </mask>
        <path d="M11,45.0000001 C11,46.374998 12.5458984,48.0532227 13.5,48 C14.4541016,47.9467773 16,48 16,48 L16,56.25 C16,58.3249998 17.8867188,59.9655762 20,60 C22.1132812,60.0344238 24,58.2106934 24,57.0285645 L24,48 L28,48 L28,56.9746094 C28,58.2194824 30.0905762,59.9685059 32,60 C33.9094238,60.0314941 36,58.3249998 36,56.25 L36,48 L38.5,48 C38.5,48 41,46.374998 41,45.0000001 L41,20.0000001 L11,20.0000001 L11,45.0000001 Z M4,20.0000001 C1.78666685,20.0000001 0,21.6750003 0,23.7500001 L0,41.2500001 C0,43.3249998 1.78666685,45.0000001 4,45.0000001 C6.21333312,45.0000001 8,43.3249998 8,41.2500001 L8,23.7500001 C8,21.6750003 6.21333312,20.0000001 4,20.0000001 Z M48,20.0000001 C45.7866667,20.0000001 44,21.6750003 44,23.7500001 L44,41.2500001 C44,43.3249998 45.7866667,45.0000001 48,45.0000001 C50.2133331,45.0000001 52,43.3249998 52,41.2500001 L52,23.7500001 C52,21.6750003 50.2133331,20.0000001 48,20.0000001 Z M34.8249993,5.24571404 L38.0749997,2.08857136 C38.5750015,1.60285711 38.5750015,0.849999965 38.0749997,0.364285714 C37.5749977,-0.121428571 36.799999,-0.121428571 36.300002,0.364285714 L32.600003,3.95857127 C30.6250007,2.98714305 28.3749995,2.42857161 26,2.42857161 C23.5999997,2.42857161 21.3500007,2.98714305 19.3500004,3.95857156 L15.6249998,0.36428593 C15.1250002,-0.121428354 14.3500004,-0.121428354 13.8499996,0.36428593 C13.3500001,0.850000254 13.3500001,1.60285725 13.8499996,2.08857165 L17.1249995,5.27000031 C13.4250007,7.91714294 11,12.1671435 11,17 L41,17 C41,12.1671435 38.5750015,7.89285725 34.8249993,5.24571404 Z" id="path-3"></path>
        <mask id="mask-4" maskContentUnits="userSpaceOnUse" maskUnits="objectBoundingBox" x="0" y="0" width="52" height="60.0004803" fill="white">
            <use xlink:href="#path-3"></use>
        </mask>
    </defs>
    <g id="Group-12" stroke="none" stroke-width="1" fill="none" fill-rule="evenodd">
        <use id="Combined-Shape" stroke="#292929" mask="url(#mask-2)" stroke-width="6" xlink:href="#path-1"></use>
        <g id="Group-19">
            <use id="Fill-2" stroke="#5ABE59" mask="url(#mask-4)" stroke-width="6" xlink:href="#path-3"></use>
            <polygon id="Path" fill="#5ABE59" points="20.9999999 12.0000001 19 12.0000001 19 10.0000002 20.9999999 10.0000002"></polygon>
            <polygon id="Path" fill="#5ABE59" points="32.9999999 12.0000001 31 12.0000001 31 10.0000002 32.9999999 10.0000002"></polygon>
        </g>
        <path d="M84.5,2.5 L35,78" id="Line" stroke="#9B9B9B" stroke-width="3" stroke-linecap="square"></path>
    </g>
</svg>
