
<svg width="80px" height="81px" viewBox="0 0 80 81" version="1.1" xmlns="http://www.w3.org/2000/svg">
    <path d="M43,60.9998 L59,60.9998 L59,57.9998 L43,57.9998 L43,60.9998 Z M45,65.9998 L59,65.9998 L59,62.9998 L45,62.9998 L45,65.9998 Z M77,73.4538 C77,75.5848 75.585,76.9998 73.453,76.9998 L48.967,76.9998 C49.776,75.9228 50,74.9038 50,73.4538 L50,71.9998 L77,71.9998 L77,73.4538 Z M37,68.9998 L29,68.9998 C29.818,67.9198 30,67.1778 30,65.7218 L30,34.7938 C30,32.6628 31.374,30.9278 33.505,30.9278 C35.637,30.9278 37,32.6618 37,34.7938 L37,68.9998 Z M27.062,34.7938 L27,35.9998 L13,35.9998 L13,38.9998 C15.131,38.9998 17,40.3948 17,42.5258 L17,58.3128 C8.937,56.1148 3,48.7598 3,39.9998 C3,33.2728 6.506,27.3758 11.78,23.9998 L32.238,23.9998 C33.938,25.0898 35.454,26.4408 36.726,27.9998 L33.505,27.9998 C29.953,27.9998 27.062,31.2408 27.062,34.7938 L27.062,34.7938 Z M23.5,68.9998 C21.368,68.9998 20,67.8528 20,65.7218 L20,42.5258 C20,41.0698 20,39.9998 18.008,38.9998 L27,38.9998 L27.062,65.7218 C27.062,67.8538 25.632,68.9998 23.5,68.9998 L23.5,68.9998 Z M12.222,17.9998 L31.778,17.9998 C32.453,17.9998 33,18.6738 33,19.4998 C33,20.3268 32.453,20.9998 31.778,20.9998 L12.222,20.9998 C11.547,20.9998 11,20.3258 11,19.4998 C11,18.6738 11.547,17.9998 12.222,17.9998 L12.222,17.9998 Z M11,6.3788 L11,3.8278 C11,3.3718 11.367,2.9998 11.818,2.9998 C12.095,2.9998 12.283,3.1308 12.393,3.2418 C12.484,3.3328 12.636,3.5298 12.636,3.8268 C12.636,6.1858 14.553,8.1038 16.909,8.1038 C19.265,8.1038 21.182,6.1858 21.182,3.8278 C21.182,3.3718 21.549,2.9998 22,2.9998 C22.452,2.9998 22.818,3.3718 22.818,3.8278 C22.818,6.1858 24.735,8.1038 27.091,8.1038 C29.447,8.1038 31.364,6.1858 31.364,3.8278 C31.364,3.3718 31.731,2.9998 32.183,2.9998 C32.458,2.9998 32.647,3.1308 32.757,3.2408 C32.848,3.3328 33,3.5298 33,3.8268 L33,6.3788 C33,9.0068 32.117,11.4478 30.446,13.4378 L29.135,14.9998 L14.865,14.9998 L13.553,13.4378 C11.883,11.4488 11,9.0078 11,6.3788 L11,6.3788 Z M65,68.9998 L65,48.9998 L62,48.9998 L62,68.9998 L47,68.9998 L47,73.4538 C47,75.5848 45.632,76.9998 43.5,76.9998 C41.368,76.9998 39.948,74.9998 39.948,71.9998 L39.948,34.7938 C39.948,33.3378 39.444,32.0078 38.626,30.9278 L57.989,30.9278 C60.121,30.9278 62,32.6628 62,34.7938 L62,43.9998 L65,43.9998 L65,34.7938 C65,31.2418 61.542,27.9998 57.989,27.9998 L40.436,27.9998 C39.002,25.8028 37.185,23.8818 35.083,22.3228 C35.623,21.4518 36,20.3888 36,19.4998 C36,17.5828 34.582,15.6408 32.744,15.3668 C34.839,12.8718 36,9.7278 36,6.3788 L36,3.8278 C36,1.7168 34.288,-0.0002 32.183,-0.0002 C30.077,-0.0002 28.364,1.7168 28.364,3.8278 C28.364,4.5308 27.794,5.1038 27.091,5.1038 C26.389,5.1038 25.818,4.5308 25.818,3.8278 C25.818,1.7168 24.105,-0.0002 22,-0.0002 C19.896,-0.0002 18.182,1.7168 18.182,3.8278 C18.182,4.5308 17.612,5.1038 16.909,5.1038 C16.207,5.1038 15.636,4.5308 15.636,3.8278 C15.637,1.7168 13.923,-0.0002 11.818,-0.0002 C9.713,-0.0002 8,1.7168 8,3.8278 L8,6.3788 C8,9.7288 9.161,12.8718 11.256,15.3668 C9.419,15.6418 8,17.5818 8,19.4998 C8,20.7048 8.323,21.6768 8.778,22.4168 C3.448,26.4308 0,32.8118 0,39.9998 C0,50.4298 7.26,59.1578 17,61.4218 L17,65.7218 C17,69.2748 19.643,71.9998 23.196,71.9998 L37,71.9998 C37,71.9998 37,79.9998 43.815,79.9998 L73.454,79.9998 C77.007,79.9998 80,77.0068 80,73.4538 L80,68.9998 L65,68.9998 Z" id="Fill-1" fill="#5ABE59"></path>
    <path d="M43,60.9998 L59,60.9998 L59,57.9998 L43,57.9998 L43,60.9998 Z M45,65.9998 L59,65.9998 L59,62.9998 L45,62.9998 L45,65.9998 Z M77,73.4538 C77,75.5848 75.585,76.9998 73.453,76.9998 L48.967,76.9998 C49.776,75.9228 50,74.9038 50,73.4538 L50,71.9998 L77,71.9998 L77,73.4538 Z M37,68.9998 L29,68.9998 C29.818,67.9198 30,67.1778 30,65.7218 L30,34.7938 C30,32.6628 31.374,30.9278 33.505,30.9278 C35.637,30.9278 37,32.6618 37,34.7938 L37,68.9998 Z M27.062,34.7938 L27,35.9998 L13,35.9998 L13,38.9998 C15.131,38.9998 17,40.3948 17,42.5258 L17,58.3128 C8.937,56.1148 3,48.7598 3,39.9998 C3,33.2728 6.506,27.3758 11.78,23.9998 L32.238,23.9998 C33.938,25.0898 35.454,26.4408 36.726,27.9998 L33.505,27.9998 C29.953,27.9998 27.062,31.2408 27.062,34.7938 L27.062,34.7938 Z M23.5,68.9998 C21.368,68.9998 20,67.8528 20,65.7218 L20,42.5258 C20,41.0698 20,39.9998 18.008,38.9998 L27,38.9998 L27.062,65.7218 C27.062,67.8538 25.632,68.9998 23.5,68.9998 L23.5,68.9998 Z M12.222,17.9998 L31.778,17.9998 C32.453,17.9998 33,18.6738 33,19.4998 C33,20.3268 32.453,20.9998 31.778,20.9998 L12.222,20.9998 C11.547,20.9998 11,20.3258 11,19.4998 C11,18.6738 11.547,17.9998 12.222,17.9998 L12.222,17.9998 Z M11,6.3788 L11,3.8278 C11,3.3718 11.367,2.9998 11.818,2.9998 C12.095,2.9998 12.283,3.1308 12.393,3.2418 C12.484,3.3328 12.636,3.5298 12.636,3.8268 C12.636,6.1858 14.553,8.1038 16.909,8.1038 C19.265,8.1038 21.182,6.1858 21.182,3.8278 C21.182,3.3718 21.549,2.9998 22,2.9998 C22.452,2.9998 22.818,3.3718 22.818,3.8278 C22.818,6.1858 24.735,8.1038 27.091,8.1038 C29.447,8.1038 31.364,6.1858 31.364,3.8278 C31.364,3.3718 31.731,2.9998 32.183,2.9998 C32.458,2.9998 32.647,3.1308 32.757,3.2408 C32.848,3.3328 33,3.5298 33,3.8268 L33,6.3788 C33,9.0068 32.117,11.4478 30.446,13.4378 L29.135,14.9998 L14.865,14.9998 L13.553,13.4378 C11.883,11.4488 11,9.0078 11,6.3788 L11,6.3788 Z M65,68.9998 L65,48.9998 L62,48.9998 L62,68.9998 L47,68.9998 L47,73.4538 C47,75.5848 45.632,76.9998 43.5,76.9998 C41.368,76.9998 39.948,74.9998 39.948,71.9998 L39.948,34.7938 C39.948,33.3378 39.444,32.0078 38.626,30.9278 L57.989,30.9278 C60.121,30.9278 62,32.6628 62,34.7938 L62,43.9998 L65,43.9998 L65,34.7938 C65,31.2418 61.542,27.9998 57.989,27.9998 L40.436,27.9998 C39.002,25.8028 37.185,23.8818 35.083,22.3228 C35.623,21.4518 36,20.3888 36,19.4998 C36,17.5828 34.582,15.6408 32.744,15.3668 C34.839,12.8718 36,9.7278 36,6.3788 L36,3.8278 C36,1.7168 34.288,-0.0002 32.183,-0.0002 C30.077,-0.0002 28.364,1.7168 28.364,3.8278 C28.364,4.5308 27.794,5.1038 27.091,5.1038 C26.389,5.1038 25.818,4.5308 25.818,3.8278 C25.818,1.7168 24.105,-0.0002 22,-0.0002 C19.896,-0.0002 18.182,1.7168 18.182,3.8278 C18.182,4.5308 17.612,5.1038 16.909,5.1038 C16.207,5.1038 15.636,4.5308 15.636,3.8278 C15.637,1.7168 13.923,-0.0002 11.818,-0.0002 C9.713,-0.0002 8,1.7168 8,3.8278 L8,6.3788 C8,9.7288 9.161,12.8718 11.256,15.3668 C9.419,15.6418 8,17.5818 8,19.4998 C8,20.7048 8.323,21.6768 8.778,22.4168 C3.448,26.4308 0,32.8118 0,39.9998 C0,50.4298 7.26,59.1578 17,61.4218 L17,65.7218 C17,69.2748 19.643,71.9998 23.196,71.9998 L37,71.9998 C37,71.9998 37,79.9998 43.815,79.9998 L73.454,79.9998 C77.007,79.9998 80,77.0068 80,73.4538 L80,68.9998 L65,68.9998 Z" id="Fill-3" fill="#5ABE59"></path>
    <path d="M76,31.4998 C75.172,31.4998 74.5,30.8288 74.5,29.9998 C74.5,29.1708 75.172,28.4998 76,28.4998 C76.828,28.4998 77.5,29.1708 77.5,29.9998 C77.5,30.8288 76.828,31.4998 76,31.4998 M64,47.4998 C63.172,47.4998 62.5,46.8288 62.5,45.9998 C62.5,45.1708 63.172,44.4998 64,44.4998 C64.828,44.4998 65.5,45.1708 65.5,45.9998 C65.5,46.8288 64.828,47.4998 64,47.4998 M55,41.4998 C54.172,41.4998 53.5,40.8288 53.5,39.9998 C53.5,39.1708 54.172,38.4998 55,38.4998 C55.828,38.4998 56.5,39.1708 56.5,39.9998 C56.5,40.8288 55.828,41.4998 55,41.4998 M47,51.4998 C46.172,51.4998 45.5,50.8288 45.5,49.9998 C45.5,49.1708 46.172,48.4998 47,48.4998 C47.828,48.4998 48.5,49.1708 48.5,49.9998 C48.5,50.8288 47.828,51.4998 47,51.4998 M76,25.9998 C73.791,25.9998 72,27.7908 72,29.9998 C72,30.8568 72.274,31.6458 72.733,32.2968 L65.353,42.2508 C64.929,42.0978 64.478,41.9998 64,41.9998 C63.115,41.9998 62.305,42.2968 61.642,42.7838 L58.916,40.8158 C58.971,40.5528 59,40.2798 59,39.9998 C59,37.7908 57.209,35.9998 55,35.9998 C52.791,35.9998 51,37.7908 51,39.9998 C51,40.7958 51.239,41.5338 51.641,42.1578 L48.454,46.2818 C48.003,46.1048 47.515,45.9998 47,45.9998 C44.791,45.9998 43,47.7908 43,49.9998 C43,52.2088 44.791,53.9998 47,53.9998 C49.209,53.9998 51,52.2088 51,49.9998 C51,49.4118 50.866,48.8578 50.638,48.3548 L54.09,43.8858 C54.383,43.9548 54.686,43.9998 55,43.9998 C55.841,43.9998 56.619,43.7378 57.263,43.2948 L60.068,45.3198 C60.03,45.5418 60,45.7668 60,45.9998 C60,48.2088 61.791,49.9998 64,49.9998 C66.209,49.9998 68,48.2088 68,45.9998 C68,45.3758 67.845,44.7928 67.59,44.2668 L75.258,33.9248 C75.499,33.9708 75.746,33.9998 76,33.9998 C78.209,33.9998 80,32.2088 80,29.9998 C80,27.7908 78.209,25.9998 76,25.9998" id="Fill-4" fill="#F9BA48"></path>
    <path d="M76,31.4998 C75.172,31.4998 74.5,30.8288 74.5,29.9998 C74.5,29.1708 75.172,28.4998 76,28.4998 C76.828,28.4998 77.5,29.1708 77.5,29.9998 C77.5,30.8288 76.828,31.4998 76,31.4998 M64,47.4998 C63.172,47.4998 62.5,46.8288 62.5,45.9998 C62.5,45.1708 63.172,44.4998 64,44.4998 C64.828,44.4998 65.5,45.1708 65.5,45.9998 C65.5,46.8288 64.828,47.4998 64,47.4998 M55,41.4998 C54.172,41.4998 53.5,40.8288 53.5,39.9998 C53.5,39.1708 54.172,38.4998 55,38.4998 C55.828,38.4998 56.5,39.1708 56.5,39.9998 C56.5,40.8288 55.828,41.4998 55,41.4998 M47,51.4998 C46.172,51.4998 45.5,50.8288 45.5,49.9998 C45.5,49.1708 46.172,48.4998 47,48.4998 C47.828,48.4998 48.5,49.1708 48.5,49.9998 C48.5,50.8288 47.828,51.4998 47,51.4998 M76,25.9998 C73.791,25.9998 72,27.7908 72,29.9998 C72,30.8568 72.274,31.6458 72.733,32.2968 L65.353,42.2508 C64.929,42.0978 64.478,41.9998 64,41.9998 C63.115,41.9998 62.305,42.2968 61.642,42.7838 L58.916,40.8158 C58.971,40.5528 59,40.2798 59,39.9998 C59,37.7908 57.209,35.9998 55,35.9998 C52.791,35.9998 51,37.7908 51,39.9998 C51,40.7958 51.239,41.5338 51.641,42.1578 L48.454,46.2818 C48.003,46.1048 47.515,45.9998 47,45.9998 C44.791,45.9998 43,47.7908 43,49.9998 C43,52.2088 44.791,53.9998 47,53.9998 C49.209,53.9998 51,52.2088 51,49.9998 C51,49.4118 50.866,48.8578 50.638,48.3548 L54.09,43.8858 C54.383,43.9548 54.686,43.9998 55,43.9998 C55.841,43.9998 56.619,43.7378 57.263,43.2948 L60.068,45.3198 C60.03,45.5418 60,45.7668 60,45.9998 C60,48.2088 61.791,49.9998 64,49.9998 C66.209,49.9998 68,48.2088 68,45.9998 C68,45.3758 67.845,44.7928 67.59,44.2668 L75.258,33.9248 C75.499,33.9708 75.746,33.9998 76,33.9998 C78.209,33.9998 80,32.2088 80,29.9998 C80,27.7908 78.209,25.9998 76,25.9998" id="Fill-5" fill="#F9BA48"></path>
</svg>
