<svg width="26px" height="18px" viewBox="0 0 26 18" version="1.1" xmlns="http://www.w3.org/2000/svg">
    <path d="M25,11 L25,4 L24,4 L24,11 L23,11 L23,13 L26,13 L26,11 L25,11 Z M24,15 L25,15 L25,14 L24,14 L24,15 Z" fill="#449EE9"></path>
    <polygon fill="#449EE9" points="6 4 0 0 19 0 26 4 12 4"></polygon>
    <path d="M19,6 C19.5816502,7.19371728 20,8.63874346 20,10 C20,14.4816754 16.6532013,18 13,18 C8.40573294,18 5,14.4816754 5,10 C5,8.63874346 5.41751978,7.19371728 6,6 L19,6 Z" fill="#449EE9"></path>
</svg>
