
<svg width="36px" height="36px" viewBox="0 0 36 36" version="1.1" xmlns="http://www.w3.org/2000/svg">
    <path d="M32,32 L4,32 L4,4 L18,4 L18,0 L4,0 C1.77999972,0 0,1.80000018 0,4 L0,32 C0,34.2000006 1.77999972,36 4,36 L32,36 C34.2000006,36 36,34.2000006 36,32 L36,18 L32,18 L32,32 Z M23.7462238,26 L23.7462238,22.0725075 L16.6963745,22.0725075 L36,2.76888185 L33.2311181,0 L13.9274925,19.3036255 L13.9274925,12.2537761 L10,12.2537761 L10,26 L23.7462238,26 Z" id="Fill-2" stroke="none" fill="#000000" fill-rule="evenodd"></path>
</svg>
